<?xml version="1.0" encoding="UTF-8" standalone="no"?>
<svg width="400" height="300" viewBox="0 0 400 300" fill="none" xmlns="http://www.w3.org/2000/svg">
  <rect width="400" height="300" fill="#F5F5F5"/>
  <path d="M200 150C227.614 150 250 127.614 250 100C250 72.3858 227.614 50 200 50C172.386 50 150 72.3858 150 100C150 127.614 172.386 150 200 150Z" fill="#E0E0E0"/>
  <path d="M100 250C127.614 250 150 227.614 150 200C150 172.386 127.614 150 100 150C72.3858 150 50 172.386 50 200C50 227.614 72.3858 250 100 250Z" fill="#E0E0E0"/>
  <path d="M300 250C327.614 250 350 227.614 350 200C350 172.386 327.614 150 300 150C272.386 150 250 172.386 250 200C250 227.614 272.386 250 300 250Z" fill="#E0E0E0"/>
  <path d="M200 120C213.255 120 224 109.255 224 96C224 82.7452 213.255 72 200 72C186.745 72 176 82.7452 176 96C176 109.255 186.745 120 200 120Z" fill="#CCCCCC"/>
  <path d="M100 220C113.255 220 124 209.255 124 196C124 182.745 113.255 172 100 172C86.7452 172 76 182.745 76 196C76 209.255 86.7452 220 100 220Z" fill="#CCCCCC"/>
  <path d="M300 220C313.255 220 324 209.255 324 196C324 182.745 313.255 172 300 172C286.745 172 276 182.745 276 196C276 209.255 286.745 220 300 220Z" fill="#CCCCCC"/>
  <path d="M200 180L100 230L300 230L200 180Z" fill="#CCCCCC"/>
  <path d="M200 160L100 210L300 210L200 160Z" fill="#E0E0E0"/>
  <text x="200" y="270" font-family="Arial" font-size="16" fill="#999999" text-anchor="middle">Food Image</text>
</svg> 